<?xml version="1.0" encoding="UTF-8" standalone="no"?>
<!DOCTYPE svg PUBLIC "-//W3C//DTD SVG 20010904//EN"
              "http://www.w3.org/TR/2001/REC-SVG-20010904/DTD/svg10.dtd">

<svg xmlns="http://www.w3.org/2000/svg"
     width="160.105mm" height="35.6447mm"
     viewBox="0 0 1891 421">
  <path id="Selection"
        fill="#ffffff" stroke="black" stroke-width="2"
        d="M 966.60,125.02
           C 963.93,128.75 965.00,134.55 965.00,139.00
             965.00,139.00 965.00,170.00 965.00,170.00
             965.00,170.00 965.00,292.00 965.00,292.00
             965.01,297.71 964.29,300.70 971.00,300.98
             973.45,301.08 977.44,301.27 979.26,299.40
             981.04,297.58 980.96,294.37 981.00,292.00
             981.00,292.00 981.00,269.00 981.00,269.00
             981.00,269.00 981.00,164.00 981.00,164.00
             981.00,164.00 981.00,135.00 981.00,135.00
             981.00,132.52 981.22,128.41 979.83,126.31
             977.55,122.89 969.84,123.64 966.60,125.02 Z
           M 1260.00,196.00
           C 1260.00,196.00 1260.00,134.00 1260.00,134.00
             1259.97,127.93 1260.16,124.31 1253.00,124.02
             1250.76,123.93 1246.53,123.69 1245.02,125.60
             1243.60,127.40 1244.00,133.59 1244.00,136.00
             1244.00,136.00 1244.00,163.00 1244.00,163.00
             1244.00,163.00 1244.00,292.00 1244.00,292.00
             1244.01,297.71 1243.29,300.70 1250.00,300.98
             1258.05,301.31 1259.88,300.22 1260.00,292.00
             1260.00,292.00 1260.00,224.00 1260.00,224.00
             1260.02,213.17 1262.34,212.58 1270.00,205.00
             1279.30,195.81 1291.51,187.68 1305.00,193.53
             1317.21,198.83 1320.98,212.87 1321.00,225.00
             1321.00,225.00 1321.00,290.00 1321.00,290.00
             1321.00,292.77 1320.68,297.29 1322.74,299.33
             1324.90,301.61 1334.01,301.73 1336.01,299.33
             1337.25,297.72 1337.00,293.94 1337.00,292.00
             1337.00,292.00 1337.00,239.00 1337.00,239.00
             1337.00,225.19 1338.19,214.30 1333.30,201.00
             1328.18,187.06 1315.85,178.18 1301.00,178.00
             1294.60,177.93 1290.22,177.71 1284.00,179.75
             1274.32,182.92 1267.11,188.96 1260.00,196.00 Z
           M 98.00,134.44
           C 87.91,136.33 78.19,140.21 71.32,148.01
             58.23,162.43 59.19,187.49 71.32,201.96
             83.36,215.97 105.68,221.85 121.00,231.46
             129.57,236.84 137.50,245.46 137.96,256.00
             139.26,285.78 105.24,292.31 83.00,283.94
             83.00,283.94 65.00,275.08 65.00,275.08
             61.54,273.74 58.59,274.11 57.43,278.06
             55.49,284.66 59.55,290.29 65.00,293.47
             72.80,298.02 86.95,301.89 96.00,302.00
             108.26,302.14 114.13,302.63 126.00,298.31
             133.79,295.47 141.04,290.62 146.10,284.00
             153.30,274.58 155.13,265.56 155.00,254.00
             154.65,224.20 127.18,215.36 105.00,204.25
             92.52,197.99 79.27,189.41 78.60,174.00
             77.56,150.42 105.28,144.74 123.00,151.09
             123.00,151.09 141.89,159.64 141.89,159.64
             146.34,159.74 146.16,154.14 145.95,151.00
             145.47,144.13 140.69,141.90 135.00,139.31
             123.54,134.10 110.41,132.85 98.00,134.44 Z
           M 742.00,134.44
           C 731.91,136.33 722.19,140.21 715.32,148.01
             702.23,162.43 703.19,187.49 715.32,201.96
             727.36,215.97 749.68,221.85 765.00,231.46
             773.57,236.84 781.50,245.46 781.96,256.00
             783.26,285.78 749.24,292.31 727.00,283.94
             727.00,283.94 709.00,275.08 709.00,275.08
             705.54,273.74 702.59,274.11 701.43,278.06
             699.49,284.66 703.55,290.29 709.00,293.47
             716.80,298.02 730.95,301.89 740.00,302.00
             752.26,302.14 758.13,302.63 770.00,298.31
             777.79,295.47 785.04,290.62 790.10,284.00
             797.30,274.58 799.13,265.56 799.00,254.00
             798.65,224.20 771.18,215.36 749.00,204.25
             736.52,197.99 723.27,189.41 722.60,174.00
             721.56,150.42 749.28,144.74 767.00,151.09
             767.00,151.09 785.89,159.64 785.89,159.64
             790.34,159.74 790.16,154.14 789.95,151.00
             789.47,144.13 784.69,141.90 779.00,139.31
             767.54,134.10 754.41,132.85 742.00,134.44 Z
           M 1471.00,150.00
           C 1471.00,150.00 1471.00,290.00 1471.00,290.00
             1471.01,296.25 1470.33,300.67 1478.00,300.98
             1480.46,301.08 1484.56,301.25 1486.40,299.40
             1488.19,297.61 1487.98,294.35 1488.00,292.00
             1488.00,292.00 1488.00,266.00 1488.00,266.00
             1488.00,266.00 1488.00,150.00 1488.00,150.00
             1488.00,150.00 1532.00,150.00 1532.00,150.00
             1533.78,149.99 1536.82,150.17 1538.26,149.01
             1540.62,147.10 1540.62,138.90 1538.26,136.99
             1536.72,135.75 1532.94,136.00 1531.00,136.00
             1531.00,136.00 1429.00,136.00 1429.00,136.00
             1426.81,136.00 1423.16,135.79 1421.31,137.02
             1418.18,139.11 1418.18,146.89 1421.31,148.98
             1423.16,150.21 1426.81,150.00 1429.00,150.00
             1429.00,150.00 1471.00,150.00 1471.00,150.00 Z
           M 1777.00,180.00
           C 1773.72,180.00 1760.78,179.34 1758.74,180.99
             1756.42,182.87 1756.42,190.13 1758.74,192.01
             1760.05,193.07 1762.41,192.97 1764.00,193.00
             1764.00,193.00 1777.00,193.00 1777.00,193.00
             1777.00,193.00 1777.00,263.00 1777.00,263.00
             1777.09,270.67 1778.52,283.46 1782.48,290.00
             1789.03,300.81 1798.52,302.02 1810.00,302.00
             1815.80,301.99 1824.53,301.76 1827.84,295.90
             1829.56,292.41 1828.65,288.65 1827.84,285.00
             1819.29,285.22 1810.28,291.63 1802.02,286.27
             1794.35,281.29 1793.10,269.42 1793.00,261.00
             1793.00,261.00 1793.00,193.00 1793.00,193.00
             1793.00,193.00 1821.00,193.00 1821.00,193.00
             1822.73,192.96 1825.02,193.03 1826.49,191.98
             1828.72,190.39 1832.38,180.22 1821.00,180.00
             1821.00,180.00 1793.00,180.00 1793.00,180.00
             1793.00,180.00 1793.00,156.00 1793.00,156.00
             1792.96,154.05 1793.10,151.37 1791.40,150.02
             1788.89,148.03 1779.88,148.52 1778.02,151.31
             1776.88,153.02 1777.01,156.00 1777.00,158.00
             1777.00,158.00 1777.00,180.00 1777.00,180.00 Z
           M 222.00,178.44
           C 190.33,184.36 177.34,209.92 177.00,240.00
             176.65,271.10 190.74,301.58 226.00,302.00
             243.28,302.20 256.37,301.21 269.91,288.70
             287.91,272.08 290.63,240.61 285.58,218.00
             283.48,208.61 278.91,197.92 271.91,191.17
             258.69,178.43 239.53,176.19 222.00,178.44 Z
           M 337.00,198.00
           C 335.22,191.73 336.81,185.06 334.98,182.31
             333.09,179.48 324.15,178.90 322.02,181.60
             320.77,183.19 321.00,187.01 321.00,189.00
             321.00,189.00 321.00,292.00 321.00,292.00
             321.01,297.71 320.29,300.70 327.00,300.98
             335.05,301.31 336.88,300.22 337.00,292.00
             337.00,292.00 337.00,224.00 337.00,224.00
             337.00,221.54 336.87,218.30 337.74,216.00
             338.79,213.24 342.39,209.31 344.42,207.01
             353.07,197.24 366.55,187.24 380.00,194.00
             391.56,199.81 394.86,215.16 395.00,227.00
             395.00,227.00 395.00,292.00 395.00,292.00
             395.00,293.94 394.75,297.72 395.99,299.33
             397.99,301.73 407.10,301.61 409.26,299.33
             411.32,297.29 411.00,292.77 411.00,290.00
             411.00,290.00 411.00,224.00 411.00,224.00
             411.02,213.19 414.41,210.98 422.17,203.58
             432.99,193.25 447.03,185.39 459.82,198.18
             467.07,205.44 468.88,218.12 469.00,228.00
             469.00,228.00 469.00,292.00 469.00,292.00
             469.00,293.94 468.75,297.72 469.99,299.33
             472.00,301.75 481.21,301.59 483.40,299.33
             485.32,297.48 484.99,293.54 485.00,291.00
             485.00,291.00 485.00,239.00 485.00,239.00
             485.00,226.59 485.25,211.64 480.55,200.00
             478.82,195.72 477.04,192.44 473.90,189.00
             467.39,181.89 459.66,178.12 450.00,178.00
             446.56,177.96 441.24,177.82 438.00,178.52
             426.63,180.94 413.84,191.96 407.00,201.00
             400.83,186.74 390.97,178.19 375.00,178.00
             362.51,177.86 357.07,179.33 347.00,187.29
             342.66,190.71 339.42,192.93 337.00,198.00 Z
           M 535.00,242.00
           C 535.00,242.00 608.00,242.00 608.00,242.00
             610.92,241.99 614.33,242.29 617.01,240.40
             622.73,235.80 619.06,217.46 617.01,211.00
             611.83,191.66 596.45,178.24 576.00,178.00
             560.15,177.82 547.03,179.09 535.04,191.04
             524.21,201.83 518.18,218.82 518.00,234.00
             517.78,252.94 518.71,272.05 532.18,286.99
             541.44,297.25 555.46,301.98 569.00,302.00
             582.12,302.02 593.56,301.64 606.00,296.55
             611.37,294.35 614.96,292.34 614.96,286.00
             614.96,284.94 614.88,283.28 614.40,282.31
             612.66,278.79 607.70,280.80 605.00,281.81
             595.13,285.50 584.76,289.17 574.00,288.49
             567.51,288.08 562.04,287.62 556.00,284.96
             538.47,277.25 535.00,259.10 535.00,242.00 Z
           M 844.00,198.00
           C 844.00,198.00 844.00,189.00 844.00,189.00
             844.00,187.01 844.23,183.19 842.98,181.60
             841.17,179.32 832.83,179.32 831.02,181.60
             829.77,183.19 830.00,187.01 830.00,189.00
             830.00,189.00 830.00,337.00 830.00,337.00
             830.00,338.99 829.77,342.81 831.02,344.40
             832.93,346.81 842.18,346.53 844.26,344.40
             846.32,342.29 846.00,337.77 846.00,335.00
             846.00,335.00 846.00,286.00 846.00,286.00
             861.53,298.73 864.53,302.24 885.00,302.00
             890.07,301.94 893.20,301.30 898.00,299.64
             920.40,291.92 929.97,266.99 930.00,245.00
             930.00,245.00 930.00,230.00 930.00,230.00
             929.93,224.24 928.27,214.47 926.48,209.00
             920.61,191.01 907.63,178.23 888.00,178.00
             866.97,177.76 858.93,183.20 844.00,198.00 Z
           M 1087.00,231.00
           C 1069.21,231.00 1050.55,229.28 1034.00,237.12
             1008.29,249.30 1008.82,281.63 1025.04,294.24
             1036.03,302.79 1056.22,304.54 1069.00,299.54
             1076.37,296.65 1082.21,292.30 1088.00,287.00
             1088.00,292.72 1086.39,300.32 1094.02,300.94
             1105.98,301.92 1103.00,292.35 1103.00,277.00
             1103.00,277.00 1103.00,222.00 1103.00,222.00
             1102.99,213.64 1101.86,203.57 1098.21,196.00
             1092.12,183.34 1079.45,178.16 1066.00,178.00
             1055.59,177.88 1050.25,177.54 1040.00,180.43
             1032.63,182.51 1019.99,186.00 1019.11,195.00
             1018.85,197.62 1018.93,202.01 1022.23,202.60
             1025.81,203.25 1032.61,198.48 1036.00,196.89
             1042.91,193.64 1052.32,191.01 1060.00,191.51
             1063.36,191.73 1067.85,192.26 1071.00,193.39
             1087.60,199.32 1087.00,216.51 1087.00,231.00 Z
           M 1166.00,178.46
           C 1158.58,180.11 1151.68,182.68 1146.11,188.18
             1134.59,199.78 1134.21,220.38 1146.11,231.91
             1158.27,243.83 1176.28,245.23 1187.00,253.53
             1194.44,259.29 1197.96,265.78 1194.44,275.00
             1188.28,291.14 1165.12,290.56 1152.00,284.69
             1144.75,281.44 1136.16,273.95 1133.73,282.06
             1129.26,296.94 1152.58,301.87 1163.00,302.00
             1163.00,302.00 1174.00,302.00 1174.00,302.00
             1180.60,301.92 1189.31,299.89 1195.00,296.53
             1200.46,293.29 1204.55,289.58 1207.65,284.00
             1209.88,279.99 1211.12,275.53 1211.71,271.00
             1214.95,246.11 1193.71,238.71 1175.00,231.20
             1166.25,227.69 1154.03,221.71 1153.11,211.00
             1151.54,192.80 1173.76,189.05 1187.00,193.36
             1187.00,193.36 1201.89,199.59 1201.89,199.59
             1206.01,199.80 1206.18,194.99 1205.89,192.00
             1205.30,186.00 1201.09,183.53 1196.00,181.34
             1187.47,177.65 1175.13,177.20 1166.00,178.46 Z
           M 1549.00,242.00
           C 1549.00,242.00 1622.00,242.00 1622.00,242.00
             1624.92,241.99 1628.33,242.29 1631.01,240.40
             1636.73,235.80 1633.06,217.46 1631.01,211.00
             1625.83,191.66 1610.45,178.24 1590.00,178.00
             1574.15,177.82 1561.03,179.09 1549.04,191.04
             1538.21,201.83 1532.18,218.82 1532.00,234.00
             1531.78,252.94 1532.71,272.05 1546.18,286.99
             1555.44,297.25 1569.46,301.98 1583.00,302.00
             1596.12,302.02 1607.56,301.64 1620.00,296.55
             1625.37,294.35 1628.96,292.34 1628.96,286.00
             1628.96,284.94 1628.88,283.28 1628.40,282.31
             1626.66,278.79 1621.70,280.80 1619.00,281.81
             1609.13,285.50 1598.76,289.17 1588.00,288.49
             1581.51,288.08 1576.04,287.62 1570.00,284.96
             1552.47,277.25 1549.00,259.10 1549.00,242.00 Z
           M 1697.00,251.00
           C 1697.00,251.00 1715.31,280.00 1715.31,280.00
             1717.67,283.67 1725.31,296.19 1727.76,298.57
             1730.80,301.53 1744.90,303.25 1744.58,296.94
             1744.41,293.70 1738.66,285.99 1736.67,283.00
             1736.67,283.00 1716.67,253.00 1716.67,253.00
             1714.97,250.46 1708.37,241.84 1708.35,239.42
             1708.32,237.02 1714.71,228.44 1716.33,226.00
             1716.33,226.00 1735.02,198.00 1735.02,198.00
             1737.15,194.92 1743.10,187.44 1743.44,184.06
             1744.07,177.78 1730.40,179.54 1727.32,182.31
             1725.26,184.17 1718.97,194.04 1717.00,197.00
             1717.00,197.00 1697.00,227.00 1697.00,227.00
             1697.00,227.00 1681.42,202.00 1681.42,202.00
             1681.42,202.00 1668.24,182.43 1668.24,182.43
             1664.91,179.19 1650.47,178.11 1651.01,184.06
             1651.24,186.55 1657.00,194.50 1658.67,197.00
             1658.67,197.00 1677.67,226.00 1677.67,226.00
             1679.64,228.96 1685.61,236.76 1685.46,240.00
             1685.33,242.88 1679.81,250.29 1678.00,253.00
             1678.00,253.00 1657.00,284.00 1657.00,284.00
             1655.03,286.94 1649.60,293.75 1649.42,296.94
             1649.09,302.95 1662.52,302.11 1666.48,297.85
             1666.48,297.85 1676.34,283.00 1676.34,283.00
             1676.34,283.00 1697.00,251.00 1697.00,251.00 Z
           M 232.00,191.45
           C 241.25,191.79 249.70,192.87 256.99,199.21
             272.40,212.62 273.74,243.62 268.23,262.00
             266.33,268.33 262.69,275.15 257.83,279.68
             251.16,285.89 242.82,287.91 234.00,288.49
             231.77,288.63 224.26,287.96 222.00,287.53
             198.51,283.06 193.91,258.01 194.00,238.00
             194.06,226.13 197.28,211.16 205.47,202.17
             212.84,194.07 221.70,192.32 232.00,191.45 Z
           M 603.00,230.00
           C 603.00,230.00 535.00,230.00 535.00,230.00
             535.10,219.31 539.01,207.57 547.04,200.18
             560.37,187.91 585.07,188.23 596.47,203.00
             602.93,211.37 603.00,220.05 603.00,230.00 Z
           M 882.00,191.37
           C 913.40,191.67 915.75,229.64 912.85,253.00
             912.26,257.73 911.22,261.52 909.66,266.00
             905.34,278.36 896.76,287.87 883.00,288.63
             870.69,289.30 851.64,276.90 846.93,266.00
             845.84,263.45 846.01,260.71 846.00,258.00
             846.00,258.00 846.00,222.00 846.00,222.00
             846.00,219.91 845.88,216.94 846.60,215.00
             847.76,211.84 851.60,208.40 854.00,206.00
             863.46,196.57 868.65,192.95 882.00,191.37 Z
           M 1617.00,230.00
           C 1617.00,230.00 1549.00,230.00 1549.00,230.00
             1549.10,219.31 1553.01,207.57 1561.04,200.18
             1574.37,187.91 1599.07,188.23 1610.47,203.00
             1616.93,211.37 1617.00,220.05 1617.00,230.00 Z
           M 1087.00,243.00
           C 1087.00,243.00 1087.00,262.00 1087.00,262.00
             1086.98,270.76 1085.62,271.81 1079.00,277.91
             1070.41,285.82 1060.68,289.76 1049.00,288.13
             1044.33,287.48 1040.89,286.70 1037.18,283.47
             1029.30,276.60 1028.73,260.91 1035.39,253.09
             1039.23,248.59 1044.44,246.61 1050.00,245.16
             1054.45,243.99 1066.21,243.01 1071.00,243.00
             1071.00,243.00 1087.00,243.00 1087.00,243.00 Z" />
</svg>
